<?xml version="1.0" encoding="UTF-8"?>
<!DOCTYPE svg PUBLIC "-//W3C//DTD SVG 1.1//EN" "http://www.w3.org/Graphics/SVG/1.1/DTD/svg11.dtd">
<svg xmlns="http://www.w3.org/2000/svg" version="1.1" width="1280px" height="1280px" style="shape-rendering:geometricPrecision; text-rendering:geometricPrecision; image-rendering:optimizeQuality; fill-rule:evenodd; clip-rule:evenodd" xmlns:xlink="http://www.w3.org/1999/xlink">
<g><path style="opacity:1" fill="#fefefe" d="M -0.5,-0.5 C 426.167,-0.5 852.833,-0.5 1279.5,-0.5C 1279.5,47.8333 1279.5,96.1667 1279.5,144.5C 1264.13,143.463 1248.8,141.963 1233.5,140C 1156.3,131.201 1082.3,142.534 1011.5,174C 1004.71,178.74 1000.88,185.24 1000,193.5C 932.741,144.307 857.908,111.474 775.5,95C 727.91,85.2966 679.91,78.2966 631.5,74C 563.349,69.3439 496.682,77.0105 431.5,97C 383.08,113.119 338.913,136.619 299,167.5C 294.493,164.664 289.66,162.498 284.5,161C 243.905,149.648 202.905,140.148 161.5,132.5C 156.384,131.194 151.051,130.527 145.5,130.5C 127.526,128.835 109.526,127.502 91.5,126.5C 79.8664,125.05 68.0331,124.383 56,124.5C 48.6587,124.5 41.492,124.834 34.5,125.5C 22.7906,126.038 11.124,127.038 -0.5,128.5C -0.5,85.5 -0.5,42.5 -0.5,-0.5 Z"/></g>
<g><path style="opacity:1" fill="#010202" d="M 1279.5,144.5 C 1279.5,200.833 1279.5,257.167 1279.5,313.5C 1267.87,335.428 1255.7,357.095 1243,378.5C 1230.61,394.231 1217.11,409.065 1202.5,423C 1212.06,445.75 1219.23,469.25 1224,493.5C 1241.23,510.252 1259.73,525.252 1279.5,538.5C 1279.5,553.5 1279.5,568.5 1279.5,583.5C 1250.97,567.609 1225.8,547.276 1204,522.5C 1200.16,515.813 1195.16,510.147 1189,505.5C 1184.43,486.658 1179.09,467.991 1173,449.5C 1164.24,429.308 1153.9,409.975 1142,391.5C 1122.55,363.6 1101.88,336.6 1080,310.5C 1035.91,267.065 987.744,228.898 935.5,196C 897.946,173.251 857.946,155.918 815.5,144C 729.181,119.544 641.181,108.877 551.5,112C 469.26,117.518 394.926,144.184 328.5,192C 280.905,232.595 237.738,277.428 199,326.5C 154.18,387.476 121.013,454.476 99.5,527.5C 102.997,535.867 101.83,543.534 96,550.5C 73.791,561.686 51.291,572.519 28.5,583C 18.9084,586.807 9.24175,590.307 -0.5,593.5C -0.5,580.5 -0.5,567.5 -0.5,554.5C 21.0322,544.979 42.3655,534.979 63.5,524.5C 73.8027,481.421 89.136,440.255 109.5,401C 85.3372,382.139 62.1706,361.972 40,340.5C 33,332.5 26,324.5 19,316.5C 12.2519,307.932 5.75191,299.266 -0.5,290.5C -0.5,266.167 -0.5,241.833 -0.5,217.5C 13.0601,241.615 27.8934,264.948 44,287.5C 68.4018,317.234 96.0685,343.568 127,366.5C 132.583,356.998 138.416,347.665 144.5,338.5C 140.63,337.926 136.964,336.759 133.5,335C 101.461,300.627 67.7939,267.96 32.5,237C 21.5781,225.91 10.5781,215.077 -0.5,204.5C -0.5,179.167 -0.5,153.833 -0.5,128.5C 11.124,127.038 22.7906,126.038 34.5,125.5C 53.5092,125.427 72.5092,125.76 91.5,126.5C 109.526,127.502 127.526,128.835 145.5,130.5C 150.598,131.957 155.931,132.624 161.5,132.5C 202.905,140.148 243.905,149.648 284.5,161C 289.66,162.498 294.493,164.664 299,167.5C 338.913,136.619 383.08,113.119 431.5,97C 496.682,77.0105 563.349,69.3439 631.5,74C 679.91,78.2966 727.91,85.2966 775.5,95C 857.908,111.474 932.741,144.307 1000,193.5C 1000.88,185.24 1004.71,178.74 1011.5,174C 1082.3,142.534 1156.3,131.201 1233.5,140C 1248.8,141.963 1264.13,143.463 1279.5,144.5 Z"/></g>
<g><path style="opacity:1" fill="#747879" d="M 1279.5,583.5 C 1279.5,684.833 1279.5,786.167 1279.5,887.5C 1258.5,912.672 1236.17,936.839 1212.5,960C 1186.42,983.417 1159.75,1006.08 1132.5,1028C 1084.47,1063.86 1032.81,1093.86 977.5,1118C 880.484,1147.91 781.151,1163.57 679.5,1165C 550.854,1171.09 425.52,1153.75 303.5,1113C 261.105,1097.77 220.438,1079.11 181.5,1057C 140.905,1035.04 101.905,1010.71 64.5,984C 42.0785,966.414 20.4118,947.914 -0.5,928.5C -0.5,816.833 -0.5,705.167 -0.5,593.5C 9.24175,590.307 18.9084,586.807 28.5,583C 51.291,572.519 73.791,561.686 96,550.5C 101.83,543.534 102.997,535.867 99.5,527.5C 121.013,454.476 154.18,387.476 199,326.5C 237.738,277.428 280.905,232.595 328.5,192C 394.926,144.184 469.26,117.518 551.5,112C 641.181,108.877 729.181,119.544 815.5,144C 857.946,155.918 897.946,173.251 935.5,196C 987.744,228.898 1035.91,267.065 1080,310.5C 1101.88,336.6 1122.55,363.6 1142,391.5C 1153.9,409.975 1164.24,429.308 1173,449.5C 1179.09,467.991 1184.43,486.658 1189,505.5C 1195.16,510.147 1200.16,515.813 1204,522.5C 1225.8,547.276 1250.97,567.609 1279.5,583.5 Z"/></g>
<g><path style="opacity:1" fill="#d0d0d0" d="M 34.5,125.5 C 41.492,124.834 48.6587,124.5 56,124.5C 68.0331,124.383 79.8664,125.05 91.5,126.5C 72.5092,125.76 53.5092,125.427 34.5,125.5 Z"/></g>
<g><path style="opacity:1" fill="#aaaaaa" d="M 145.5,130.5 C 151.051,130.527 156.384,131.194 161.5,132.5C 155.931,132.624 150.598,131.957 145.5,130.5 Z"/></g>
<g><path style="opacity:1" fill="#747879" d="M 18.5,163.5 C 76.0045,161.185 133.004,165.351 189.5,176C 207.816,180.441 226.149,184.774 244.5,189C 252.346,190.95 260.013,193.284 267.5,196C 258.363,204.136 249.53,212.636 241,221.5C 226.667,237.167 212.333,252.833 198,268.5C 185.62,283.211 173.62,298.211 162,313.5C 161,311.5 160,309.5 159,307.5C 143.409,290.187 127.243,273.354 110.5,257C 85.8394,234.672 61.5061,212.006 37.5,189C 28.3268,181.324 19.3268,173.491 10.5,165.5C 13.3056,164.832 15.9723,164.166 18.5,163.5 Z"/></g>
<g><path style="opacity:1" fill="#747879" d="M 1155.5,175.5 C 1196.05,174.717 1236.38,177.217 1276.5,183C 1252.16,202.329 1229.33,223.496 1208,246.5C 1184.59,271.908 1161.92,297.908 1140,324.5C 1116.65,293.147 1089.82,264.981 1059.5,240C 1046.5,229.667 1033.5,219.333 1020.5,209C 1063.85,191.078 1108.85,179.912 1155.5,175.5 Z"/></g>
<g><path style="opacity:1" fill="#c3c7c1" d="M -0.5,204.5 C 10.5781,215.077 21.5781,225.91 32.5,237C 67.7939,267.96 101.461,300.627 133.5,335C 136.964,336.759 140.63,337.926 144.5,338.5C 138.416,347.665 132.583,356.998 127,366.5C 96.0685,343.568 68.4018,317.234 44,287.5C 27.8934,264.948 13.0601,241.615 -0.5,217.5C -0.5,213.167 -0.5,208.833 -0.5,204.5 Z"/></g>
<g><path style="opacity:1" fill="#c3c7c2" d="M 1273.5,234.5 C 1274.04,234.56 1274.38,234.893 1274.5,235.5C 1257.53,273.766 1238.7,311.099 1218,347.5C 1208.49,362.675 1197.16,376.341 1184,388.5C 1178.12,377.956 1171.45,367.956 1164,358.5C 1163.33,357.5 1163.33,356.5 1164,355.5C 1197.44,312.555 1233.94,272.222 1273.5,234.5 Z"/></g>
<g><path style="opacity:1" fill="#fdfdfd" d="M -0.5,290.5 C 5.75191,299.266 12.2519,307.932 19,316.5C 26,324.5 33,332.5 40,340.5C 62.1706,361.972 85.3372,382.139 109.5,401C 89.136,440.255 73.8027,481.421 63.5,524.5C 42.3655,534.979 21.0322,544.979 -0.5,554.5C -0.5,466.5 -0.5,378.5 -0.5,290.5 Z"/></g>
<g><path style="opacity:1" fill="#fdfdfd" d="M 1279.5,313.5 C 1279.5,388.5 1279.5,463.5 1279.5,538.5C 1259.73,525.252 1241.23,510.252 1224,493.5C 1219.23,469.25 1212.06,445.75 1202.5,423C 1217.11,409.065 1230.61,394.231 1243,378.5C 1255.7,357.095 1267.87,335.428 1279.5,313.5 Z"/></g>
<g><path style="opacity:1" fill="#010102" d="M 610.5,342.5 C 657.902,339.995 704.902,343.162 751.5,352C 776.606,357.368 800.606,365.701 823.5,377C 827.916,379.412 831.749,382.578 835,386.5C 840.176,399.641 836.342,409.141 823.5,415C 820.167,415.667 816.833,415.667 813.5,415C 789.993,402.052 764.993,393.052 738.5,388C 641.435,372.117 546.435,380.117 453.5,412C 436.51,419.101 419.844,426.768 403.5,435C 385.729,436.556 378.229,428.389 381,410.5C 382.561,407.217 384.727,404.383 387.5,402C 416.426,385.55 447.093,372.884 479.5,364C 522.641,352.733 566.307,345.567 610.5,342.5 Z"/></g>
<g><path style="opacity:1" fill="#020203" d="M 705.5,429.5 C 721.557,427.44 732.723,433.773 739,448.5C 741.48,471.347 731.314,482.847 708.5,483C 691.691,478.165 684.524,466.998 687,449.5C 690.229,440.105 696.395,433.438 705.5,429.5 Z"/></g>
<g><path style="opacity:1" fill="#020203" d="M 522.5,431.5 C 546.533,430.395 557.7,441.729 556,465.5C 550.239,480.302 539.406,486.802 523.5,485C 504.606,476.641 499.106,462.808 507,443.5C 511.233,438.077 516.4,434.077 522.5,431.5 Z"/></g>
<g><path style="opacity:1" fill="#000000" d="M 615.5,535.5 C 658.942,533.064 701.609,537.564 743.5,549C 767.687,556.505 788.853,569.005 807,586.5C 826.212,609.101 828.545,633.434 814,659.5C 801.881,676.616 786.381,689.783 767.5,699C 719.894,720.355 669.894,730.522 617.5,729.5C 576.277,729.964 536.61,722.464 498.5,707C 483.709,700.186 470.542,691.019 459,679.5C 437.856,654.349 436.19,628.015 454,600.5C 471.756,579.856 493.59,565.023 519.5,556C 550.754,545.185 582.754,538.351 615.5,535.5 Z"/></g>
<g><path style="opacity:1" fill="#edeeea" d="M 731.5,579.5 C 742.584,578.24 751.084,582.24 757,591.5C 760.9,606.542 755.4,616.042 740.5,620C 725.492,620.605 710.492,620.938 695.5,621C 686.228,615.88 682.728,608.047 685,597.5C 688.619,589.553 694.786,585.053 703.5,584C 713.005,582.673 722.339,581.173 731.5,579.5 Z"/></g>
<g><path style="opacity:1" fill="#010101" d="M 940.5,998.5 C 944.418,989.103 942.751,980.937 935.5,974C 934.255,973.209 932.922,972.709 931.5,972.5C 930.5,971.833 929.5,971.167 928.5,970.5C 928.557,969.391 928.89,968.391 929.5,967.5C 936.673,960.661 944.506,954.661 953,949.5C 954.623,935.757 948.79,926.59 935.5,922C 915.392,914.633 894.725,909.3 873.5,906C 838.295,901.016 802.962,897.516 767.5,895.5C 737.391,892.388 707.057,890.388 676.5,889.5C 645.511,887.607 614.511,887.274 583.5,888.5C 542.841,888.399 502.507,891.899 462.5,899C 454.139,900.363 446.139,902.529 438.5,905.5C 437.5,905.5 436.5,905.5 435.5,905.5C 410.454,912.203 386.787,921.869 364.5,934.5C 358.261,937.872 352.428,941.872 347,946.5C 347.257,949.343 347.09,952.01 346.5,954.5C 331.751,947.851 322.084,952.185 317.5,967.5C 316.883,967.611 316.383,967.944 316,968.5C 305.483,951.764 306.149,935.431 318,919.5C 327.342,909.484 337.842,900.984 349.5,894C 403.955,867.191 461.621,852.191 522.5,849C 576.805,844.929 631.138,844.595 685.5,848C 746.02,850.87 806.354,855.87 866.5,863C 898.759,866.316 929.759,874.316 959.5,887C 993.264,906.714 1003.1,934.88 989,971.5C 982.397,981.769 973.231,988.602 961.5,992C 955.848,998.942 948.848,1001.11 940.5,998.5 Z"/></g>
<g><path style="opacity:1" fill="#977e7b" d="M 583.5,888.5 C 614.511,887.274 645.511,887.607 676.5,889.5C 645.501,889.125 614.501,888.792 583.5,888.5 Z"/></g>
<g><path style="opacity:1" fill="#bd968e" d="M 583.5,888.5 C 614.501,888.792 645.501,889.125 676.5,889.5C 707.057,890.388 737.391,892.388 767.5,895.5C 701.059,891.619 634.559,890.286 568,891.5C 543.838,892.979 519.671,894.479 495.5,896C 476.589,899.919 457.589,903.086 438.5,905.5C 446.139,902.529 454.139,900.363 462.5,899C 502.507,891.899 542.841,888.399 583.5,888.5 Z"/></g>
<g><path style="opacity:1" fill="#010102" d="M 1279.5,887.5 C 1279.5,906.833 1279.5,926.167 1279.5,945.5C 1226.07,1001.81 1167.4,1051.47 1103.5,1094.5C 1073.66,1112.59 1042.99,1129.43 1011.5,1145C 979.046,1157.78 945.712,1167.78 911.5,1175C 853.151,1187.98 794.151,1196.48 734.5,1200.5C 720.323,1200.72 706.323,1201.39 692.5,1202.5C 552.312,1210.12 415.978,1191.28 283.5,1146C 240.446,1129.97 199.112,1110.47 159.5,1087.5C 115.269,1063.71 72.9357,1036.88 32.5,1007C 21.9189,997.245 10.9189,988.079 -0.5,979.5C -0.5,962.5 -0.5,945.5 -0.5,928.5C 20.4118,947.914 42.0785,966.414 64.5,984C 101.905,1010.71 140.905,1035.04 181.5,1057C 220.438,1079.11 261.105,1097.77 303.5,1113C 425.52,1153.75 550.854,1171.09 679.5,1165C 781.151,1163.57 880.484,1147.91 977.5,1118C 1032.81,1093.86 1084.47,1063.86 1132.5,1028C 1159.75,1006.08 1186.42,983.417 1212.5,960C 1236.17,936.839 1258.5,912.672 1279.5,887.5 Z"/></g>
<g><path style="opacity:1" fill="#d29586" d="M 767.5,895.5 C 802.962,897.516 838.295,901.016 873.5,906C 894.725,909.3 915.392,914.633 935.5,922C 948.79,926.59 954.623,935.757 953,949.5C 944.506,954.661 936.673,960.661 929.5,967.5C 929.631,966.761 929.464,966.094 929,965.5C 928.196,966.804 927.029,967.471 925.5,967.5C 911.729,963.007 897.562,961.007 883,961.5C 838.518,963.425 794.018,963.925 749.5,963C 739.785,962.683 730.285,961.516 721,959.5C 715.227,958.322 710.727,959.989 707.5,964.5C 704.139,966.895 701.472,969.895 699.5,973.5C 688.162,973.333 676.828,973.5 665.5,974C 664.263,974.232 663.263,974.732 662.5,975.5C 657.545,971.198 651.711,969.198 645,969.5C 634.143,970.816 623.309,971.816 612.5,972.5C 610.527,971.837 608.361,971.504 606,971.5C 589.008,972.781 572.175,974.114 555.5,975.5C 514.853,977.738 474.187,978.071 433.5,976.5C 431.527,975.837 429.361,975.504 427,975.5C 423.523,975.328 420.356,975.994 417.5,977.5C 414.281,978.069 411.948,979.736 410.5,982.5C 409.326,980.559 407.659,979.059 405.5,978C 400.677,976.299 396.01,974.299 391.5,972C 385.07,971.23 378.737,971.73 372.5,973.5C 366.38,972.683 360.713,970.683 355.5,967.5C 353.709,962.224 350.709,957.891 346.5,954.5C 347.09,952.01 347.257,949.343 347,946.5C 352.428,941.872 358.261,937.872 364.5,934.5C 369.461,933.853 373.794,931.853 377.5,928.5C 384.336,927.837 390.336,925.337 395.5,921C 399.385,920.261 403.052,918.927 406.5,917C 410.795,916.088 415.128,915.421 419.5,915C 424.793,911.544 430.126,908.377 435.5,905.5C 436.5,905.5 437.5,905.5 438.5,905.5C 457.589,903.086 476.589,899.919 495.5,896C 519.671,894.479 543.838,892.979 568,891.5C 634.559,890.286 701.059,891.619 767.5,895.5 Z"/></g>
<g><path style="opacity:1" fill="#b8948c" d="M 435.5,905.5 C 430.126,908.377 424.793,911.544 419.5,915C 415.128,915.421 410.795,916.088 406.5,917C 403.052,918.927 399.385,920.261 395.5,921C 390.336,925.337 384.336,927.837 377.5,928.5C 373.794,931.853 369.461,933.853 364.5,934.5C 386.787,921.869 410.454,912.203 435.5,905.5 Z"/></g>
<g><path style="opacity:1" fill="#efefea" d="M 346.5,954.5 C 350.709,957.891 353.709,962.224 355.5,967.5C 360.713,970.683 366.38,972.683 372.5,973.5C 378.737,971.73 385.07,971.23 391.5,972C 396.01,974.299 400.677,976.299 405.5,978C 407.659,979.059 409.326,980.559 410.5,982.5C 417.068,991.361 417.068,1000.36 410.5,1009.5C 407.489,1012.68 403.822,1014.84 399.5,1016C 382.585,1017.47 365.918,1016.14 349.5,1012C 328.634,1004.41 317.967,989.58 317.5,967.5C 322.084,952.185 331.751,947.851 346.5,954.5 Z"/></g>
<g><path style="opacity:1" fill="#757979" d="M 1279.5,945.5 C 1279.5,1056.83 1279.5,1168.17 1279.5,1279.5C 1261.17,1279.5 1242.83,1279.5 1224.5,1279.5C 1206.25,1232.33 1183.75,1187.33 1157,1144.5C 1145.27,1127.43 1131.43,1112.27 1115.5,1099C 1111.83,1096.67 1107.83,1095.17 1103.5,1094.5C 1167.4,1051.47 1226.07,1001.81 1279.5,945.5 Z"/></g>
<g><path style="opacity:1" fill="#cf9d91" d="M 929.5,967.5 C 928.89,968.391 928.557,969.391 928.5,970.5C 921.651,968.389 914.651,966.555 907.5,965C 860.818,964.889 814.151,965.723 767.5,967.5C 757.024,965.964 746.358,964.798 735.5,964C 730.483,962.82 725.483,961.653 720.5,960.5C 715.745,960.642 711.412,961.975 707.5,964.5C 710.727,959.989 715.227,958.322 721,959.5C 730.285,961.516 739.785,962.683 749.5,963C 794.018,963.925 838.518,963.425 883,961.5C 897.562,961.007 911.729,963.007 925.5,967.5C 927.029,967.471 928.196,966.804 929,965.5C 929.464,966.094 929.631,966.761 929.5,967.5 Z"/></g>
<g><path style="opacity:1" fill="#fbe3db" d="M 928.5,970.5 C 929.5,971.167 930.5,971.833 931.5,972.5C 929.856,972.286 928.356,972.62 927,973.5C 922.107,970.968 916.94,968.801 911.5,967C 868.827,966.73 826.161,967.23 783.5,968.5C 777.989,968.499 772.656,968.166 767.5,967.5C 814.151,965.723 860.818,964.889 907.5,965C 914.651,966.555 921.651,968.389 928.5,970.5 Z"/></g>
<g><path style="opacity:1" fill="#eeeeea" d="M 662.5,975.5 C 671.581,983.682 672.748,993.016 666,1003.5C 664.27,1005.4 662.437,1007.07 660.5,1008.5C 656.17,1010.22 651.67,1011.22 647,1011.5C 636.451,1010.85 625.951,1009.85 615.5,1008.5C 603.342,1005.15 598.175,997.151 600,984.5C 601.919,980.746 604.419,977.412 607.5,974.5C 609.167,973.833 610.833,973.167 612.5,972.5C 623.309,971.816 634.143,970.816 645,969.5C 651.711,969.198 657.545,971.198 662.5,975.5 Z"/></g>
<g><path style="opacity:1" fill="#291312" d="M 612.5,972.5 C 610.833,973.167 609.167,973.833 607.5,974.5C 605.527,973.837 603.361,973.504 601,973.5C 585.877,975.119 570.71,975.786 555.5,975.5C 572.175,974.114 589.008,972.781 606,971.5C 608.361,971.504 610.527,971.837 612.5,972.5 Z"/></g>
<g><path style="opacity:1" fill="#020101" d="M 607.5,974.5 C 604.419,977.412 601.919,980.746 600,984.5C 598.175,997.151 603.342,1005.15 615.5,1008.5C 623.394,1009.16 623.394,1010.66 615.5,1013C 591.499,1014.67 567.499,1016.33 543.5,1018C 515.167,1018.67 486.833,1018.67 458.5,1018C 444.605,1015.97 430.605,1014.97 416.5,1015C 414.999,1013.75 413.332,1012.75 411.5,1012C 410.748,1011.33 410.414,1010.5 410.5,1009.5C 417.068,1000.36 417.068,991.361 410.5,982.5C 411.948,979.736 414.281,978.069 417.5,977.5C 422.797,976.725 428.13,976.392 433.5,976.5C 474.187,978.071 514.853,977.738 555.5,975.5C 570.71,975.786 585.877,975.119 601,973.5C 603.361,973.504 605.527,973.837 607.5,974.5 Z"/></g>
<g><path style="opacity:1" fill="#6f4f47" d="M 433.5,976.5 C 428.13,976.392 422.797,976.725 417.5,977.5C 420.356,975.994 423.523,975.328 427,975.5C 429.361,975.504 431.527,975.837 433.5,976.5 Z"/></g>
<g><path style="opacity:1" fill="#070505" d="M 699.5,973.5 C 696.624,985.365 697.291,997.031 701.5,1008.5C 700.64,1010.61 698.973,1011.78 696.5,1012C 693.667,1012.17 690.833,1012.33 688,1012.5C 679.52,1011.54 671.02,1010.7 662.5,1010C 661.584,1009.72 660.918,1009.22 660.5,1008.5C 662.437,1007.07 664.27,1005.4 666,1003.5C 672.748,993.016 671.581,983.682 662.5,975.5C 663.263,974.732 664.263,974.232 665.5,974C 676.828,973.5 688.162,973.333 699.5,973.5 Z"/></g>
<g><path style="opacity:1" fill="#757879" d="M -0.5,979.5 C 10.9189,988.079 21.9189,997.245 32.5,1007C 72.9357,1036.88 115.269,1063.71 159.5,1087.5C 153.892,1092.28 148.725,1097.61 144,1103.5C 102.391,1157.7 68.2239,1216.37 41.5,1279.5C 27.5,1279.5 13.5,1279.5 -0.5,1279.5C -0.5,1179.5 -0.5,1079.5 -0.5,979.5 Z"/></g>
<g><path style="opacity:1" fill="#eff0eb" d="M 767.5,967.5 C 772.656,968.166 777.989,968.499 783.5,968.5C 826.161,967.23 868.827,966.73 911.5,967C 916.94,968.801 922.107,970.968 927,973.5C 928.356,972.62 929.856,972.286 931.5,972.5C 932.922,972.709 934.255,973.209 935.5,974C 942.751,980.937 944.418,989.103 940.5,998.5C 939.069,1000.44 937.402,1002.27 935.5,1004C 923.528,1012.44 910.195,1017.77 895.5,1020C 881.496,1021.21 867.496,1022.38 853.5,1023.5C 855.376,1034.73 856.376,1046.06 856.5,1057.5C 855.069,1074.49 853.569,1091.49 852,1108.5C 850.583,1114.83 847.083,1119.67 841.5,1123C 824.92,1132.72 812.753,1128.89 805,1111.5C 804.612,1092.73 803.112,1074.06 800.5,1055.5C 799.167,1055.5 797.833,1055.5 796.5,1055.5C 795.201,1070.63 793.034,1085.63 790,1100.5C 785.903,1107.47 779.736,1111.31 771.5,1112C 760.674,1113.5 752.84,1109.34 748,1099.5C 743.764,1079.05 740.764,1058.38 739,1037.5C 731.726,1033.73 724.559,1029.73 717.5,1025.5C 711.91,1019.91 706.576,1014.24 701.5,1008.5C 697.291,997.031 696.624,985.365 699.5,973.5C 701.472,969.895 704.139,966.895 707.5,964.5C 711.412,961.975 715.745,960.642 720.5,960.5C 725.483,961.653 730.483,962.82 735.5,964C 746.358,964.798 757.024,965.964 767.5,967.5 Z"/></g>
<g><path style="opacity:1" fill="#c4c9c3" d="M 159.5,1087.5 C 199.112,1110.47 240.446,1129.97 283.5,1146C 415.978,1191.28 552.312,1210.12 692.5,1202.5C 703.362,1202.22 714.195,1202.56 725,1203.5C 727.824,1202.95 730.657,1202.45 733.5,1202C 734.056,1201.62 734.389,1201.12 734.5,1200.5C 794.151,1196.48 853.151,1187.98 911.5,1175C 945.712,1167.78 979.046,1157.78 1011.5,1145C 1042.99,1129.43 1073.66,1112.59 1103.5,1094.5C 1107.83,1095.17 1111.83,1096.67 1115.5,1099C 1131.43,1112.27 1145.27,1127.43 1157,1144.5C 1183.75,1187.33 1206.25,1232.33 1224.5,1279.5C 830.167,1279.5 435.833,1279.5 41.5,1279.5C 68.2239,1216.37 102.391,1157.7 144,1103.5C 148.725,1097.61 153.892,1092.28 159.5,1087.5 Z"/></g>
<g><path style="opacity:1" fill="#a6a7a3" d="M 734.5,1200.5 C 734.389,1201.12 734.056,1201.62 733.5,1202C 730.657,1202.45 727.824,1202.95 725,1203.5C 714.195,1202.56 703.362,1202.22 692.5,1202.5C 706.323,1201.39 720.323,1200.72 734.5,1200.5 Z"/></g>
</svg>
